<?xml version="1.0" standalone="no"?>
<!DOCTYPE svg PUBLIC "-//W3C//DTD SVG 20010904//EN"
 "http://www.w3.org/TR/2001/REC-SVG-20010904/DTD/svg10.dtd">
<svg version="1.0" xmlns="http://www.w3.org/2000/svg"
 width="148.000000pt" height="156.000000pt" viewBox="0 0 148.000000 156.000000"
 preserveAspectRatio="xMidYMid meet">

<g transform="translate(0.000000,156.000000) scale(0.100000,-0.100000)"
fill="#000000" stroke="none">
<path d="M605 1431 c-154 -71 -150 -280 7 -346 92 -38 190 2 239 97 47 92 -1
210 -103 253 -49 20 -94 19 -143 -4z"/>
<path d="M100 800 l0 -80 570 0 570 0 0 80 0 80 -570 0 -570 0 0 -80z"/>
<path d="M605 531 c-154 -71 -150 -280 7 -346 92 -38 190 2 239 97 47 92 -1
210 -103 253 -49 20 -94 19 -143 -4z"/>
</g>
</svg>
