<?xml version="1.0" standalone="no"?>
<!DOCTYPE svg PUBLIC "-//W3C//DTD SVG 20010904//EN"
 "http://www.w3.org/TR/2001/REC-SVG-20010904/DTD/svg10.dtd">
<svg version="1.0" xmlns="http://www.w3.org/2000/svg"
 width="148.000000pt" height="156.000000pt" viewBox="0 0 148.000000 156.000000"
 preserveAspectRatio="xMidYMid meet">

<g transform="translate(0.000000,156.000000) scale(0.100000,-0.100000)"
fill="#000000" stroke="none">
<path d="M481 1125 c-132 -179 -241 -334 -241 -345 0 -11 108 -167 241 -346
217 -293 244 -325 267 -322 21 2 71 64 263 323 141 189 238 329 238 343 1 14
-85 139 -238 345 -191 259 -243 323 -263 325 -23 3 -51 -31 -267 -323z m473
-60 c114 -153 204 -285 201 -292 -2 -8 -96 -137 -207 -287 -197 -265 -203
-272 -219 -252 -109 141 -392 533 -393 543 -1 11 406 575 410 569 1 0 94 -127
208 -281z"/>
</g>
</svg>
